<?xml version="1.0" encoding="utf-8"?>
<!-- Generator: Adobe Illustrator 18.1.1, SVG Export Plug-In . SVG Version: 6.00 Build 0)  -->
<svg version="1.1" xmlns="http://www.w3.org/2000/svg" xmlns:xlink="http://www.w3.org/1999/xlink" x="0px" y="0px"
	 viewBox="0 0 597.6 346.3" enable-background="new 0 0 597.6 346.3" xml:space="preserve">
<g id="letras_logo">
	<g id="a">
		<path fill-rule="evenodd" clip-rule="evenodd" fill="#FF9900" d="M561.7,228.7c0.2,3.9-9.4,14.9-15,28.5
			c-2.9,6.9-21.1,37.8-1.8,37.7c20.3-2.4,36.4-30.5,38.5-26.4c1.1,2.7-21.5,32.2-39.8,30.1c-21.6-2.5-3.5-38.1,1-50
			c-1.4,0.3-7.9,6.5-13.1,10.7c-8.5,6.9-13.9,9.6-16.9,9.6c-2.8,0-3.1-6.1-2.5-8.7c2.9-11.7,23.3-30.2,35.3-31.5
			c4.1-0.4,6.9,1.3,10.5,0.8C559,227.7,559.8,228.3,561.7,228.7z M520.4,262.4c3.5,2.2,28.4-23.9,28.9-26.7c0.8-2-5.4-5.1-16.5,5.8
			C527,247.2,519,255.9,520.4,262.4z"/>
	</g>
	<g id="r">
		<path fill-rule="evenodd" clip-rule="evenodd" fill="#FF9900" d="M216.7,246.7c7.5-5.1,17.1-17.7,26-14.1c1.3,5.8-5.2,4.1-9.7,5.9
			c-1.6,0-10.8,7.6-16.2,13.4c-6.9,7.4-11,20.2-19.5,19c-2.6-2.8,13.9-17.8,15-32.7c4-0.9,7.4-6.5,10.5-4.3
			C225.3,236.6,217.8,241.8,216.7,246.7z"/>
	</g>
	<g id="t">
		<path fill-rule="evenodd" clip-rule="evenodd" fill="#FF9900" d="M503.2,172.4c-2.5,4.1-7.1,4.7-10.5,7.5
			c-9.1,7.6-16.8,18.7-24,29.3c9.4,1.5,21.7-0.4,32.3,1.5c-5.5,8.8-25.4,3.1-36.8,6c-12.7,20.2-37.4,54.5-39.8,87
			c-0.8,10.8,1.3,22.6,10.5,24c7.7,1.2,17.4-4.1,22.5-7.5c6.9-4.5,13.8-12.2,20.3-20.3c5.6-7,14.7-17.5,6.8-27
			c-3.6-0.3-6.3,3.3-9,1.5c3.9-12.5,19.2-3.5,18,9c-1.1,11.3-10.3,21.2-18,28.5c-8.9,8.4-18.9,16.2-27.8,18.8
			c-23.2,6.6-31.4-10.5-29.3-30c3.6-32,23.1-56.6,36-81.7c-0.1-3.2-7.3-3.2-4.5-6.8c1.3-2.9,6.5-2,10.5-2.3
			c7.9-12.6,18.4-22.6,27-34.5C492.5,174.9,498.1,168,503.2,172.4z"/>
	</g>
	<g id="T">
		<path fill-rule="evenodd" clip-rule="evenodd" fill="#FF9900" d="M107.2,176.2c2.3,4-1.9,5.4-2.3,9c5.4,2.6,13.9,2.1,21.8,2.3
			c0.4-3.9-1.3-5.7-0.8-9.8c7.5,1.9,7.1,13.4,1.3,16.9c-10.2,0.4-17.4-0.8-26-1.9c-8.7,9.7-14.8,23.3-21.8,36.8
			c-7.9,15.2-17,30-17.4,48.5c-1.5,0-3.5-0.1-5-0.1c-1-21.6,22.7-58.6,35.9-85.9c-20.8-2.7-60.2-12.5-73.5,0.8
			c-2.7,3.7,13.6,23.6,12,25.5c-2.6,0.9-6.5-4.6-9.6-8.6c-2.7-3.6-7.7-10-7.7-13.1c0-6.9,8.6-13.1,16.5-15c19.2-4.6,49.2,4.2,66,3.8
			c2.9-3.9-2.2,0-2.3-3.7C96.2,179.7,101.4,174.1,107.2,176.2z"/>
	</g>
	<g id="x">
		<path fill-rule="evenodd" clip-rule="evenodd" fill="#FF9900" d="M119.2,231.9c3.4-1.1,3.9,8,4.8,17.9c6.2-3.2,27.7-23,30-16.9
			c1.8,4-6.9,6.1-13.8,11.6c-4.6,3.7-9.8,7.5-14.2,11.3c0.6,8.9,11,22.4,7.3,23.1c-3.1,0.6-8.4-12.5-11.8-20.3
			c-7.4,5.1-32.9,27.4-31.8,38c1.1,9.8,12.5,7.6,9,10.6c-4.8,2.3-12.7-3.2-12.4-12.9c0.4-13.8,27.5-35,32.8-40.9
			C118.2,238.5,114.6,233.3,119.2,231.9z"/>
	</g>
	<g id="i">
		<g>
			<path fill-rule="evenodd" clip-rule="evenodd" fill="#FF9900" d="M406.4,218.9c1.4,5.8-8.9,12.4-11.5,7.2
				C393.1,221.4,404.3,213.3,406.4,218.9z"/>
			<path fill-rule="evenodd" clip-rule="evenodd" fill="#FF9900" d="M399.4,230.8c4.8,4.9-12.4,21.9-13.2,35.4
				c11.8-0.6,26.7-17.1,28-14.6c0.9,1.9,0.1,3.8-10.8,12.4c-5.2,4.1-16.2,12.2-21.5,2.3c-3.1-5.8,3-15.8,6.2-23.4
				c2.9-7,4.9-11.2,6.3-12.6C396.3,229.2,398.7,229.8,399.4,230.8z"/>
		</g>
		<g>
			<path fill-rule="evenodd" clip-rule="evenodd" fill="#FF9900" d="M275.4,218.9c1.4,5.8-8.9,12.4-11.5,7.2
				C262.1,221.4,273.3,213.3,275.4,218.9z"/>
			<path fill-rule="evenodd" clip-rule="evenodd" fill="#FF9900" d="M268.4,230.8c4.8,4.9-12.4,21.9-13.2,35.4
				c11.8-0.6,26.7-17.1,28-14.6c0.9,1.9,0.1,3.8-10.8,12.4c-5.2,4.1-16.2,12.2-21.5,2.3c-3.1-5.8,3-15.8,6.2-23.4
				c2.9-7,4.9-11.2,6.3-12.6C265.3,229.2,267.7,229.8,268.4,230.8z"/>
		</g>
		<g>
			<path fill-rule="evenodd" clip-rule="evenodd" fill="#FF9900" d="M184.4,218.9c1.4,5.8-8.9,12.4-11.5,7.2
				C171.1,221.4,182.3,213.3,184.4,218.9z"/>
			<path fill-rule="evenodd" clip-rule="evenodd" fill="#FF9900" d="M177.4,230.8c4.8,4.9-12.4,21.9-13.2,35.4
				c11.8-0.6,26.7-17.1,28-14.6c0.9,1.9,0.1,3.8-10.8,12.4c-5.2,4.1-16.2,12.2-21.5,2.3c-3.1-5.8,3-15.8,6.2-23.4
				c2.9-7,4.9-11.2,6.3-12.6C174.3,229.2,176.7,229.8,177.4,230.8z"/>
		</g>
	</g>
	<g id="V">
		<path fill-rule="evenodd" clip-rule="evenodd" fill="#009933" d="M557.2,107.9c6,7.5,20.3,26.3,9.9,40.5
			c-11.9,16.1-38.8,5.8-47.4-7.5c-3.3,36.3-50.6,22.1-46.5-10.5c-4.5,4.2-22.8,14-30,5.3c-52.6,47.9-85.1,107.8-123.8,167.2
			c-3.6,5.6-11.7,21-19.2,21c-5.1,0-9.3-10.3-8.5-21c1.4-18.4,10.1-41.2,15.3-58.3c10.7-34.7,21.9-62.5,32.7-97.5
			c5.5-17.9,12.7-44.2,11.2-57.1c-0.5-4.9-2.5-9.3-6-11.3c-22.7-5.3-48.1,20-64.9,41.2c-15.7,19.8-31.7,47.5-34.1,72
			c-0.5,4.7,0,11.8,1.1,14.6c3.1,8,12.3,3,10.1,8.7c-7.1,8.8-15.7-11.6-15.7-20.8c0-15.7,7-31.3,12.6-43.5
			c11.2-24.5,27.3-45.7,46.6-62.5c8.2-7.1,30-22.7,43.5-15.8c9,4.6,14.9,18.1,12.8,33c-1.9,13.6-8.4,35.1-13.7,52.4
			c-10.2,33.2-20.1,60.1-30.5,93.4c-6.7,21.5-18,62.9-12.8,68.7c5.1,0.9,14.1-16.2,18.8-24.4c18.3-32.2,70.5-116,120.7-164.6
			c-6.1-16.3,1.5-31.1,12.8-36.8c-23.3,2.1-33.6-26.9-17.3-40.4c11.9-9.8,22.4-4.5,32.8,0c-17.2-27.3,5.2-45.3,25.7-37.6
			c4.8,1.8,7.6,12.2,9,21.8c5.4-12.2,12.2-23.8,27.8-24c18-0.2,28.6,20,18.8,38.3c0.1,0.6-0.3,0.7-0.8,0.8
			C583.8,48.6,601.7,105.6,557.2,107.9z M491.9,22.4c-5.6-5.3-18.4-3.2-22.4,3c-4.1,6.3-2.6,15.1,1.3,22.6c4,7.8,11.8,14,8.5,18.6
			c-11.8-11.9-40.8-19.3-46.5,0.8c-4.9,17.4,13.8,22.7,28.5,22.5c4.3-0.1,9.7-3.1,12.8,0.8c-4.1,6.6-14.4,6.2-21,11.3
			c-6.7,5.1-17,27.8-2.3,31.5c11.5,2.8,21.9-9.9,26.3-16.5c2.8-4.3,3.1-12.2,9-11.3c1.3,2.1-16.1,27.3-0.8,44.3
			c14.6,16.1,34.9,0.6,28.5-27c4-1.5,16.9,29.7,37.5,27.8c20.3-1.9,14-26.9,3.8-37.5c-8.8-9-23.3-11.2-28.5-19.5
			c3.3-0.9,41.6,18.2,51-3.8c4.4-30.5-28.6-34.6-49.5-24.8c3.4-4.3,9.3-4.5,13.5-9.7c11-13.7,5.1-34.2-9-35.3
			c-21-1.6-29.8,34.9-34.5,33.8C495.4,46.7,501.3,31.5,491.9,22.4z"/>
		<path fill-rule="evenodd" clip-rule="evenodd" fill="#FF9900" d="M486.7,66.7c9.5-13.7,29.4-9.6,35.3,3c3.7,8,1.3,21.4-6,27.8
			c-8.6,7.4-31,7-33.8-5.3c-1.8-7.9,3.1-12.7,4.5-16.8C487.4,73.3,486,70.2,486.7,66.7z"/>
	</g>
</g>
<g id="texto">
</g>
</svg>
